<?xml version="1.0" encoding="UTF-8"?>
<svg width="200px" height="201px" viewBox="0 0 200 201" version="1.1" xmlns="http://www.w3.org/2000/svg" xmlns:xlink="http://www.w3.org/1999/xlink">
    <!-- Generator: Sketch 40.1 (33804) - http://www.bohemiancoding.com/sketch -->
    <title>apns-logo</title>
    <desc>Created with Sketch.</desc>
    <defs>
        <linearGradient x1="100%" y1="0%" x2="1.58442283%" y2="98.4155772%" id="linearGradient-1">
            <stop stop-color="#F9AD4C" offset="0%"></stop>
            <stop stop-color="#FC3E33" offset="100%"></stop>
        </linearGradient>
    </defs>
    <g id="Page-1" stroke="none" stroke-width="1" fill="none" fill-rule="evenodd">
        <g id="apns-logo">
            <path d="M177,65.4840764 C177,61.9384289 176.645435,58.0382166 175.936306,54.492569 C175.227176,50.9469214 174.163482,47.4012739 172.390658,43.8556263 C170.617834,40.6645435 168.490446,37.4734607 166.008493,34.9915074 C163.526539,32.5095541 160.335456,30.0276008 157.144374,28.6093418 C153.953291,26.836518 150.407643,25.7728238 146.861996,25.0636943 C143.316348,24.3545648 139.416136,24.3545648 135.870488,24 L130.906582,24 L124.878981,24 L80.5583864,24 L62.1210191,24 L56.0934183,24 L51.1295117,24 L48.2929936,24 C45.4564756,24 42.6199575,24.3545648 40.1380042,24.7091295 C37.3014862,25.0636943 34.8195329,25.7728238 32.3375796,26.836518 C31.6284501,27.1910828 30.5647558,27.5456476 29.8556263,27.9002123 C27.373673,29.3184713 25.2462845,30.7367304 23.118896,32.5095541 C22.4097665,33.2186837 21.7006369,33.5732484 20.9915074,34.2823779 C18.5095541,36.7643312 16.0276008,39.955414 14.6093418,43.1464968 C12.836518,46.3375796 11.7728238,49.8832272 11.0636943,53.7834395 C10.3545648,57.329087 10.3545648,61.2292994 10,64.7749469 L10,69.7388535 L10,75.7664544 L10,103.067941 L10,138.524416 L10,144.552017 L10,149.515924 C10,153.061571 10.3545648,156.961783 11.0636943,160.507431 C11.7728238,164.053079 12.836518,167.598726 14.6093418,171.144374 C16.3821656,174.335456 18.5095541,177.526539 20.9915074,180.008493 C23.4734607,182.490446 26.6645435,184.972399 29.8556263,186.390658 C33.0467091,188.163482 36.5923567,189.227176 40.1380042,189.936306 C43.6836518,190.645435 47.5838641,190.645435 51.1295117,191 L56.0934183,191 L62.1210191,191 L124.878981,191 L130.906582,191 L135.870488,191 C139.416136,191 143.316348,190.645435 146.861996,189.936306 C150.407643,189.227176 153.953291,188.163482 157.144374,186.390658 C160.335456,184.617834 163.526539,182.490446 166.008493,180.008493 C168.490446,177.526539 170.972399,174.335456 172.390658,171.144374 C174.163482,167.953291 175.227176,164.407643 175.936306,160.507431 C176.645435,156.961783 176.645435,153.061571 177,149.515924 L177,144.552017 L177,138.524416 L177,75.7664544 L177,70.447983 L177,65.4840764 L177,65.4840764 Z" id="RoundedBackground" fill="url(#linearGradient-1)"></path>
            <path d="M118.778545,148.458806 C104.287939,156.738997 84.3663775,157.58921 64.3239746,149.093905 C48.0967061,142.264881 34.6315258,130.31409 26,116.656042 C30.1431324,120.070554 34.9767868,122.802164 40.1557023,125.192322 C60.8541012,134.7871 81.5490475,134.131514 96.1087052,125.216223 C96.1018,125.209394 96.0948948,125.199151 96.0879896,125.192322 C75.3723276,109.485567 57.764015,88.998496 44.6440957,72.2673878 C41.8820075,69.5357783 39.8104413,66.1212665 37.7388751,63.0482058 C53.6208826,77.3891556 78.824938,95.4860685 87.8017248,100.607836 C68.812368,80.8036675 51.8945774,56.219182 52.5850995,56.9020844 C82.6228093,86.9497889 110.588953,104.022348 110.588953,104.022348 C111.517705,104.53794 112.228943,104.968168 112.805529,105.350593 C113.409736,103.827721 113.937985,102.246802 114.386824,100.607836 C119.220479,83.1938258 113.696302,63.389657 101.612166,47 C129.57831,63.7311082 146.150839,95.1446174 139.245619,121.436359 C139.06263,122.146577 138.869284,122.846552 138.658675,123.532869 C138.738085,123.63189 138.817495,123.727496 138.900358,123.826517 C152.710799,140.899076 148.912928,158.995989 147.186622,155.581477 C139.694458,141.086875 125.825322,145.518911 118.778545,148.458806 L118.778545,148.458806 Z" id="LittleBirdie" fill="#FEFEFE"></path>
            <ellipse id="Badge" fill="#D0011B" cx="166" cy="35" rx="25" ry="25"></ellipse>
        </g>
    </g>
</svg>