<?xml version="1.0" encoding="UTF-8"?>
<svg width="181px" height="181px" viewBox="0 0 181 181" version="1.1" xmlns="http://www.w3.org/2000/svg" xmlns:xlink="http://www.w3.org/1999/xlink" style="background: #FFFFFF;">
    <!-- Generator: Sketch 40.1 (33804) - http://www.bohemiancoding.com/sketch -->
    <title>apns-logo</title>
    <desc>Created with Sketch.</desc>
    <defs>
        <linearGradient x1="100%" y1="0%" x2="1.58442283%" y2="98.4155772%" id="linearGradient-1">
            <stop stop-color="#F9AD4C" offset="0%"></stop>
            <stop stop-color="#FC3E33" offset="100%"></stop>
        </linearGradient>
    </defs>
    <g id="Page-1" stroke="none" stroke-width="1" fill="none" fill-rule="evenodd">
        <g id="apns-logo">
            <path d="M167,55.4840764 C167,51.9384289 166.645435,48.0382166 165.936306,44.492569 C165.227176,40.9469214 164.163482,37.4012739 162.390658,33.8556263 C160.617834,30.6645435 158.490446,27.4734607 156.008493,24.9915074 C153.526539,22.5095541 150.335456,20.0276008 147.144374,18.6093418 C143.953291,16.836518 140.407643,15.7728238 136.861996,15.0636943 C133.316348,14.3545648 129.416136,14.3545648 125.870488,14 L120.906582,14 L114.878981,14 L70.5583864,14 L52.1210191,14 L46.0934183,14 L41.1295117,14 L38.2929936,14 C35.4564756,14 32.6199575,14.3545648 30.1380042,14.7091295 C27.3014862,15.0636943 24.8195329,15.7728238 22.3375796,16.836518 C21.6284501,17.1910828 20.5647558,17.5456476 19.8556263,17.9002123 C17.373673,19.3184713 15.2462845,20.7367304 13.118896,22.5095541 C12.4097665,23.2186837 11.7006369,23.5732484 10.9915074,24.2823779 C8.50955414,26.7643312 6.02760085,29.955414 4.60934183,33.1464968 C2.83651805,36.3375796 1.77282378,39.8832272 1.06369427,43.7834395 C0.354564756,47.329087 0.354564756,51.2292994 0,54.7749469 L0,59.7388535 L0,65.7664544 L0,93.0679406 L0,128.524416 L0,134.552017 L0,139.515924 C0,143.061571 0.354564756,146.961783 1.06369427,150.507431 C1.77282378,154.053079 2.83651805,157.598726 4.60934183,161.144374 C6.38216561,164.335456 8.50955414,167.526539 10.9915074,170.008493 C13.4734607,172.490446 16.6645435,174.972399 19.8556263,176.390658 C23.0467091,178.163482 26.5923567,179.227176 30.1380042,179.936306 C33.6836518,180.645435 37.5838641,180.645435 41.1295117,181 L46.0934183,181 L52.1210191,181 L114.878981,181 L120.906582,181 L125.870488,181 C129.416136,181 133.316348,180.645435 136.861996,179.936306 C140.407643,179.227176 143.953291,178.163482 147.144374,176.390658 C150.335456,174.617834 153.526539,172.490446 156.008493,170.008493 C158.490446,167.526539 160.972399,164.335456 162.390658,161.144374 C164.163482,157.953291 165.227176,154.407643 165.936306,150.507431 C166.645435,146.961783 166.645435,143.061571 167,139.515924 L167,134.552017 L167,128.524416 L167,65.7664544 L167,60.447983 L167,55.4840764 L167,55.4840764 Z" id="RoundedBackground" fill="url(#linearGradient-1)"></path>
            <path d="M108.778545,138.458806 C94.2879391,146.738997 74.3663775,147.58921 54.3239746,139.093905 C38.0967061,132.264881 24.6315258,120.31409 16,106.656042 C20.1431324,110.070554 24.9767868,112.802164 30.1557023,115.192322 C50.8541012,124.7871 71.5490475,124.131514 86.1087052,115.216223 C86.1018,115.209394 86.0948948,115.199151 86.0879896,115.192322 C65.3723276,99.4855672 47.764015,78.998496 34.6440957,62.2673878 C31.8820075,59.5357783 29.8104413,56.1212665 27.7388751,53.0482058 C43.6208826,67.3891556 68.824938,85.4860685 77.8017248,90.6078363 C58.812368,70.8036675 41.8945774,46.219182 42.5850995,46.9020844 C72.6228093,76.9497889 100.588953,94.0223482 100.588953,94.0223482 C101.517705,94.5379395 102.228943,94.968168 102.805529,95.3505933 C103.409736,93.827721 103.937985,92.246802 104.386824,90.6078363 C109.220479,73.1938258 103.696302,53.389657 91.6121661,37 C119.57831,53.7311082 136.150839,85.1446174 129.245619,111.436359 C129.06263,112.146577 128.869284,112.846552 128.658675,113.532869 C128.738085,113.63189 128.817495,113.727496 128.900358,113.826517 C142.710799,130.899076 138.912928,148.995989 137.186622,145.581477 C129.694458,131.086875 115.825322,135.518911 108.778545,138.458806 L108.778545,138.458806 Z" id="LittleBirdie" fill="#FEFEFE"></path>
            <ellipse id="Badge" fill="#D0011B" cx="156" cy="25" rx="25" ry="25"></ellipse>
        </g>
    </g>
</svg>